<?xml version="1.0" encoding="UTF-8"?>
<svg version="1.1" xmlns="http://www.w3.org/2000/svg" width="500" height="500">
<path d="M0 0 C1.1454126 0.00572021 2.2908252 0.01144043 3.47094727 0.01733398 C19.42544021 0.35256458 32.25412754 6.00792859 44.3125 16.5 C44.3125 17.16 44.3125 17.82 44.3125 18.5 C44.9725 18.5 45.6325 18.5 46.3125 18.5 C46.3125 19.16 46.3125 19.82 46.3125 20.5 C46.9725 20.5 47.6325 20.5 48.3125 20.5 C49.1015625 22.1875 49.1015625 22.1875 49.3125 24.5 C47.3984375 26.9375 47.3984375 26.9375 44.6875 29.5 C43.80835937 30.345625 42.92921875 31.19125 42.0234375 32.0625 C39.5218718 34.31174639 36.96471438 36.43184727 34.3125 38.5 C31.1320112 37.05038946 28.59252633 35.25253422 25.875 33.0625 C15.3264153 24.75462773 5.4902872 23.00483357 -7.6875 24.5 C-13.26323793 25.99042622 -17.88561526 28.05014774 -22.38671875 31.671875 C-24.6875 33.5 -24.6875 33.5 -26.6875 33.5 C-26.914375 34.03625 -27.14125 34.5725 -27.375 35.125 C-28.6875 37.5 -28.6875 37.5 -31 40 C-39.20655858 49.49720429 -40.18517884 61.58260947 -39.6875 73.5 C-38.65097445 83.38947327 -33.05555868 93.19029604 -25.8203125 99.8203125 C-22.32669014 102.57170007 -18.72974173 104.66008307 -14.6875 106.5 C-14.00171875 106.8196875 -13.3159375 107.139375 -12.609375 107.46875 C-2.96440913 111.32673635 7.82841735 110.48286476 17.41796875 106.9140625 C21.63737905 104.85275814 25.25830926 102.2064302 28.9375 99.3046875 C31.0330503 97.712345 32.85874851 96.44130984 35.3125 95.5 C35.9725 95.83 36.6325 96.16 37.3125 96.5 C37.3125 97.16 37.3125 97.82 37.3125 98.5 C37.9725 98.5 38.6325 98.5 39.3125 98.5 C39.3125 99.16 39.3125 99.82 39.3125 100.5 C39.9725 100.5 40.6325 100.5 41.3125 100.5 C41.3125 101.16 41.3125 101.82 41.3125 102.5 C42.2096875 102.9021875 42.2096875 102.9021875 43.125 103.3125 C45.38823361 104.54111253 46.82790577 105.39031346 48.3125 107.5 C48.10436504 110.76443251 47.52936214 112.24808944 45.37890625 114.74609375 C31.00962758 127.32201471 15.93238831 134.09710655 -3.35546875 133.75390625 C-19.18134047 132.54794885 -33.78952078 125.92408233 -45.6875 115.5 C-45.6875 114.84 -45.6875 114.18 -45.6875 113.5 C-46.3475 113.5 -47.0075 113.5 -47.6875 113.5 C-47.6875 112.84 -47.6875 112.18 -47.6875 111.5 C-48.3475 111.5 -49.0075 111.5 -49.6875 111.5 C-51.23352217 109.44673676 -52.62956473 107.41716073 -54 105.25 C-54.40226807 104.61755371 -54.80453613 103.98510742 -55.21899414 103.33349609 C-65.28871422 87.10904289 -69.09787977 67.90427401 -64.84765625 49.0546875 C-61.52227953 38.32838818 -55.54705933 27.59072284 -47.6875 19.5 C-47.0275 19.5 -46.3675 19.5 -45.6875 19.5 C-45.6875 18.84 -45.6875 18.18 -45.6875 17.5 C-32.50134393 5.97509194 -17.38709689 -0.10087249 0 0 Z " fill="#02457B" transform="translate(67.6875,165.5)"/>
<path d="M0 0 C0.66 0 1.32 0 2 0 C2.24121582 0.56807373 2.48243164 1.13614746 2.73095703 1.72143555 C3.86025196 4.37766824 4.99262148 7.03258048 6.125 9.6875 C6.50398438 10.58017578 6.88296875 11.47285156 7.2734375 12.39257812 C9.41729496 17.41277767 11.62983169 22.39082696 13.93359375 27.33984375 C17.08400614 34.1233768 20.02049922 40.98856051 22.9375 47.875 C26.05966247 55.21823367 29.18713698 62.54763614 32.625 69.75 C35.65316499 76.09437495 38.32908574 82.56044182 41 89.0625 C44.20882877 96.86942287 47.59444282 104.44528713 51.4609375 111.94921875 C58 124.91116751 58 124.91116751 58 132 C49.75 132 41.5 132 33 132 C30.66666667 127.33333333 28.33333333 122.66666667 26 118 C25.59523438 117.25234375 25.19046875 116.5046875 24.7734375 115.734375 C24 114 24 114 24 111 C8.16 111 -7.68 111 -24 111 C-24.99 113.97 -25.98 116.94 -27 120 C-28.8688506 124.07873232 -30.93748822 128.01247723 -33 132 C-41.25 132 -49.5 132 -58 132 C-57.14063616 126.84381693 -55.8459995 122.90360912 -53.71875 118.2421875 C-53.38940964 117.50585083 -53.06006927 116.76951416 -52.7207489 116.01086426 C-51.65366941 113.62926065 -50.57687987 111.25218599 -49.5 108.875 C-48.76016421 107.22767227 -48.02099032 105.58004712 -47.2824707 103.93212891 C-44.31244228 97.31206886 -41.31951809 90.70240723 -38.32421875 84.09375 C-37.61187522 82.52088041 -36.89962767 80.94796734 -36.1875 79.375 C-35.85057129 78.63282227 -35.51364258 77.89064453 -35.16650391 77.12597656 C-32.1092617 70.34541359 -29.24750817 63.48540772 -26.375 56.625 C-23.08709416 48.77577895 -19.67643072 41.11844735 -15.75390625 33.56640625 C-12.99925981 27.96508733 -10.60520239 22.21218114 -8.19482422 16.45581055 C-2.20429067 2.20429067 -2.20429067 2.20429067 0 0 Z M-1 53 C-3.14057344 58.37344658 -5.27670522 63.7486288 -7.40869141 69.12548828 C-8.13500283 70.9554031 -8.86253807 72.78483267 -9.59130859 74.61376953 C-10.63699259 77.23864976 -11.67830159 79.86522836 -12.71875 82.4921875 C-13.04685669 83.31306854 -13.37496338 84.13394958 -13.7130127 84.97970581 C-15.38752661 88.86985634 -15.38752661 88.86985634 -16 93 C-5.44 93 5.12 93 16 93 C13.73630777 85.12580788 13.73630777 85.12580788 10.6875 77.875 C6.89636478 69.83180127 3.81098748 61.43296244 1 53 C0.34 53 -0.32 53 -1 53 Z " fill="#02447A" transform="translate(429,163)"/>
<path d="M0 0 C10.26327431 11.07189592 13.57670763 23.28801248 13.109375 38.07421875 C12.58481913 46.47281435 9.57633823 53.9119891 5.75 61.3125 C5.09 61.3125 4.43 61.3125 3.75 61.3125 C3.09 62.9625 2.43 64.6125 1.75 66.3125 C1.09 66.3125 0.43 66.3125 -0.25 66.3125 C-0.25 66.9725 -0.25 67.6325 -0.25 68.3125 C-8.371625 75.92652344 -17.0808528 77.63731336 -27.89453125 77.52734375 C-34.42386356 77.10928406 -39.60842879 75.57855255 -44.90087891 71.7409668 C-45.52878326 71.2872319 -46.15668762 70.83349701 -46.80361938 70.36601257 C-47.28092499 70.01835342 -47.75823059 69.67069427 -48.25 69.3125 C-48.26030746 69.88657089 -48.27061493 70.46064178 -48.28123474 71.05210876 C-48.38907434 77.00515662 -48.50368977 82.95804615 -48.62231445 88.91088867 C-48.66573588 91.13513896 -48.70740545 93.35942415 -48.74731445 95.58374023 C-48.80484306 98.77338195 -48.86858684 101.9628468 -48.93359375 105.15234375 C-48.95866249 106.65389259 -48.95866249 106.65389259 -48.98423767 108.18577576 C-49.00418289 109.10665482 -49.02412811 110.02753387 -49.04467773 110.97631836 C-49.06022202 111.79128281 -49.0757663 112.60624725 -49.09178162 113.44590759 C-49.25 115.3125 -49.25 115.3125 -50.25 116.3125 C-51.65348735 116.41110131 -53.06180477 116.44328937 -54.46875 116.4453125 C-55.74298828 116.44724609 -55.74298828 116.44724609 -57.04296875 116.44921875 C-57.93628906 116.44535156 -58.82960937 116.44148438 -59.75 116.4375 C-60.64332031 116.44136719 -61.53664062 116.44523437 -62.45703125 116.44921875 C-63.30652344 116.44792969 -64.15601563 116.44664062 -65.03125 116.4453125 C-65.81564453 116.44418457 -66.60003906 116.44305664 -67.40820312 116.44189453 C-69.25 116.3125 -69.25 116.3125 -70.25 115.3125 C-70.34597204 113.71827964 -70.37187924 112.1197955 -70.37025452 110.52268982 C-70.37162918 109.48637421 -70.37300385 108.45005859 -70.37442017 107.38233948 C-70.37082489 106.23579391 -70.36722961 105.08924835 -70.36352539 103.90795898 C-70.36367142 102.70812378 -70.36381744 101.50828857 -70.3639679 100.27209473 C-70.36338894 96.97264809 -70.35835978 93.67326336 -70.35139394 90.3738277 C-70.34515973 86.92915703 -70.34455655 83.48448562 -70.34336853 80.03981018 C-70.34025541 73.5126727 -70.33204229 66.98555189 -70.32201904 60.45842177 C-70.3108573 53.02927984 -70.3053473 45.60013714 -70.30032361 38.17098892 C-70.28985966 22.88481628 -70.2722606 7.59866028 -70.25 -7.6875 C-66.15155459 -8.28777128 -62.14468158 -8.85929846 -58 -8.9375 C-56.75476563 -8.97617188 -56.75476563 -8.97617188 -55.484375 -9.015625 C-52.7354527 -8.61193711 -51.90400999 -7.88074835 -50.25 -5.6875 C-49.5625 -3 -49.5625 -3 -49.25 -0.6875 C-48.445625 -1.43 -47.64125 -2.1725 -46.8125 -2.9375 C-32.75894367 -14.57715136 -12.95383265 -12.14421811 0 0 Z M-45.84765625 17.2109375 C-50.62297983 24.25558394 -51.86222906 31.10353538 -50.84765625 39.5 C-49.4974757 45.85379081 -46.96184265 51.41640734 -41.6875 55.375 C-36.6618378 58.20764597 -32.02340043 59.04729642 -26.25 58.3125 C-19.10829582 56.09241967 -14.67035617 51.49174853 -10.9921875 45.140625 C-7.40623648 37.86841663 -7.42736507 32.26913203 -9.9375 24.6875 C-12.51071293 18.18248969 -15.71088045 13.33039612 -22.171875 10.015625 C-31.54943901 6.842765 -39.61829128 9.80880699 -45.84765625 17.2109375 Z " fill="#02447A" transform="translate(295.25,220.6875)"/>
<path d="M0 0 C2.58282285 1.85456632 4.71633332 3.76708147 7 6 C7.66 3.36 8.32 0.72 9 -2 C12.31248187 -2.02888146 15.62493167 -2.04675799 18.9375 -2.0625 C19.88302734 -2.07087891 20.82855469 -2.07925781 21.80273438 -2.08789062 C23.15141602 -2.09272461 23.15141602 -2.09272461 24.52734375 -2.09765625 C25.77632446 -2.10551147 25.77632446 -2.10551147 27.05053711 -2.11352539 C29 -2 29 -2 30 -1 C30.09504251 1.52541002 30.12557158 4.02337126 30.11352539 6.54907227 C30.11367142 7.33925751 30.11381744 8.12944275 30.1139679 8.943573 C30.11326857 11.56787822 30.10547527 14.19211336 30.09765625 16.81640625 C30.09579214 18.63101665 30.0943682 20.44562756 30.09336853 22.26023865 C30.08954279 27.0459023 30.07971204 31.8315358 30.06866455 36.6171875 C30.05845163 41.49674064 30.05387117 46.37629864 30.04882812 51.25585938 C30.03808982 60.83725286 30.02101273 70.41862393 30 80 C26.57851142 81.71074429 22.77061317 81.22665255 19 81.25 C18.16726562 81.270625 17.33453125 81.29125 16.4765625 81.3125 C15.67992187 81.31765625 14.88328125 81.3228125 14.0625 81.328125 C13.33160156 81.3374707 12.60070312 81.34681641 11.84765625 81.35644531 C11.23792969 81.23881836 10.62820312 81.12119141 10 81 C8.0549 78.08235 7.54723683 76.37462715 7 73 C6.34 73.7425 5.68 74.485 5 75.25 C-1.323866 81.46817464 -9.31804006 83.44996279 -18 84 C-29.25931723 83.69725267 -37.68116184 78.77522071 -45.375 70.75 C-54.9107766 59.26017082 -56.97608695 45.93404424 -55.79296875 31.46875 C-54.11423346 20.10500345 -47.1518071 8.42646842 -37.9921875 1.4765625 C-26.5921731 -6.02230629 -12.05857583 -6.51281509 0 0 Z M-26 19 C-26.33 19.99 -26.66 20.98 -27 22 C-27.66 22 -28.32 22 -29 22 C-29.639375 23.0725 -30.27875 24.145 -30.9375 25.25 C-31.29714844 25.85328125 -31.65679687 26.4565625 -32.02734375 27.078125 C-35.42070056 33.78307098 -34.93566568 42.75775044 -32.875 49.8125 C-30.86000247 54.97651693 -27.96310449 59.3076578 -23.078125 62.09765625 C-17.32395794 64.49522586 -12.3320838 64.80416683 -6.375 62.75 C0.01126527 59.4386032 3.87402207 55.45634672 7 49 C9.07283646 40.96775873 9.01967647 32.37480965 5 25 C1.55997962 19.88911258 -2.14823745 16.81782502 -8 15 C-14.56105836 13.97776833 -20.65638926 14.8283561 -26 19 Z " fill="#03457B" transform="translate(177,215)"/>
<path d="M0 0 C0.91120605 0.01047363 1.82241211 0.02094727 2.76123047 0.03173828 C3.74736328 0.03818359 4.73349609 0.04462891 5.74951172 0.05126953 C7.29832031 0.07640625 7.29832031 0.07640625 8.87841797 0.10205078 C9.91869141 0.11107422 10.95896484 0.12009766 12.03076172 0.12939453 C14.60520889 0.15301331 17.17920009 0.18594929 19.75341797 0.22705078 C20.99720487 2.71462458 20.88200415 4.37790003 20.88713074 7.16162109 C20.89139572 8.20483521 20.89566071 9.24804932 20.90005493 10.32287598 C20.89960175 11.47203491 20.89914856 12.62119385 20.89868164 13.80517578 C20.90204025 15.011698 20.90539886 16.21822021 20.90885925 17.46130371 C20.91674642 20.77528265 20.92003766 24.08919895 20.92067504 27.40318298 C20.92162341 30.16678262 20.92530078 32.93037622 20.92884713 35.69397354 C20.93699427 42.21151281 20.93943109 48.72903826 20.9387207 55.24658203 C20.93811947 61.97785859 20.94867971 68.70905513 20.96446437 75.44031143 C20.97752193 81.21358748 20.98290537 86.98683731 20.98226529 92.76012802 C20.98200983 96.21092286 20.98488778 99.66164658 20.99544334 103.11242676 C21.00688511 106.95795854 21.00238849 110.80337971 20.99633789 114.64892578 C21.0019574 115.79808472 21.0075769 116.94724365 21.0133667 118.13122559 C21.00917221 119.1744397 21.00497772 120.21765381 21.00065613 121.29248047 C21.0012009 122.20245789 21.00174566 123.1124353 21.00230694 124.04998779 C20.75341797 126.22705078 20.75341797 126.22705078 18.75341797 128.22705078 C15.46098193 128.6757474 12.13544054 128.5511332 8.81591797 128.53955078 C7.43629883 128.5637207 7.43629883 128.5637207 6.02880859 128.58837891 C4.70333008 128.5893457 4.70333008 128.5893457 3.35107422 128.59033203 C2.54162354 128.59331299 1.73217285 128.59629395 0.89819336 128.59936523 C-1.83171575 128.12547663 -2.55885286 127.40183444 -4.24658203 125.22705078 C-4.62131214 122.94255733 -4.62131214 122.94255733 -4.62080383 120.21018982 C-4.62781815 119.1740152 -4.63483246 118.13784058 -4.64205933 117.07026672 C-4.63441559 115.9340538 -4.62677185 114.79784088 -4.61889648 113.62719727 C-4.62254715 112.43028259 -4.62619781 111.23336792 -4.62995911 110.00018311 C-4.63668221 106.71714034 -4.62994244 103.43446646 -4.61662698 100.15145373 C-4.60531836 96.71840537 -4.60941946 93.28537181 -4.6113739 89.85231018 C-4.61225695 84.08793257 -4.60117337 78.32367255 -4.58276367 72.55932617 C-4.56158579 65.88992978 -4.55808821 59.22070555 -4.56432563 52.55128235 C-4.5700149 46.14029057 -4.56437946 39.72935956 -4.55315208 33.31837654 C-4.5485013 30.58754416 -4.54763429 27.85674889 -4.54973793 25.12591362 C-4.55010706 21.31634385 -4.53753111 17.50703978 -4.52124023 13.69750977 C-4.52371765 12.55927261 -4.52619507 11.42103546 -4.52874756 10.24830627 C-4.52166275 9.21495148 -4.51457794 8.18159668 -4.50727844 7.1169281 C-4.50522557 6.21562385 -4.5031727 5.31431959 -4.50105762 4.38570309 C-4.13219327 1.25671972 -3.12126797 0.3154509 0 0 Z " fill="#0B4C82" transform="translate(327.24658203125,168.77294921875)"/>
<path d="M0 0 C3.91936232 0.96265039 5.35438059 1.5186585 7.5625 4.875 C8.125 8.3125 8.125 8.3125 7.5625 11.875 C5.11249553 15.26177089 3.69857554 16.66198584 -0.4375 17.4375 C-4.20741795 16.73064038 -5.84168092 15.69331785 -8.4375 12.875 C-9.67424251 9.24206886 -9.78208203 7.63308047 -8.1875 4.125 C-5.59972266 0.7978577 -4.26538153 -0.15510478 0 0 Z " fill="#EA7656" transform="translate(160.4375,334.125)"/>
<path d="M0 0 C2.88293954 1.72976372 3.02200887 3.07923193 3.9375 6.375 C4 10 4 10 2.3125 12.875 C-0.9919571 15.91152815 -0.9919571 15.91152815 -4 16 C-7.26254699 15.26759149 -9.40759892 14.51596223 -11.9375 12.3125 C-13.5411349 8.82223581 -13.04142577 6.64499019 -12 3 C-8.24312908 -1.41984814 -5.45800476 -1.51611243 0 0 Z " fill="#F37759" transform="translate(181,176)"/>
<path d="M0 0 C1.90625 0.41015625 1.90625 0.41015625 4.40625 1.91015625 C6.52010602 5.43324961 6.8414536 8.40682856 5.90625 12.41015625 C3.20274843 15.68712785 1.53103708 16.31150566 -2.65625 16.97265625 C-6.09375 16.41015625 -6.09375 16.41015625 -8.53125 14.28515625 C-10.37417686 10.89417082 -10.72733675 9.21167674 -10.09375 5.41015625 C-7.58723776 0.60600778 -5.16813059 -0.37603935 0 0 Z " fill="#ED7861" transform="translate(162.09375,308.58984375)"/>
<path d="M0 0 C2.4375 1.5 2.4375 1.5 4 4 C4.80414661 8.04560357 4.63828902 10.97873756 2.4375 14.5 C-0.9238388 16.56851618 -3.11959911 16.48505011 -7 16 C-9.375 14.9375 -9.375 14.9375 -11 13 C-12.10373378 9.02655839 -12.41543583 6.91000228 -10.6875 3.125 C-7.63346061 -0.72082738 -4.73012808 -0.40776966 0 0 Z " fill="#FB7758" transform="translate(388,309)"/>
<path d="M0 0 C2.4375 1.4375 2.4375 1.4375 4 4 C4.31821008 7.03082057 4.23343667 9.96532334 4 13 C3.34 13 2.68 13 2 13 C2 13.66 2 14.32 2 15 C-1.13871188 16.56935594 -3.53855822 16.35201103 -7 16 C-10 13.9375 -10 13.9375 -12 11 C-12.06944397 7.04169355 -11.5699479 4.85492184 -9.375 1.5625 C-6.0382229 -0.63274809 -3.91451456 -0.55921637 0 0 Z " fill="#EE7C63" transform="translate(414,309)"/>
<path d="M0 0 C3.31248187 -0.02888146 6.62493167 -0.04675799 9.9375 -0.0625 C10.88302734 -0.07087891 11.82855469 -0.07925781 12.80273438 -0.08789062 C14.15141602 -0.09272461 14.15141602 -0.09272461 15.52734375 -0.09765625 C16.77632446 -0.10551147 16.77632446 -0.10551147 18.05053711 -0.11352539 C20 0 20 0 21 1 C21.09504251 3.52541002 21.12557158 6.02337126 21.11352539 8.54907227 C21.11367142 9.33925751 21.11381744 10.12944275 21.1139679 10.943573 C21.11326857 13.56787822 21.10547527 16.19211336 21.09765625 18.81640625 C21.09579214 20.63101665 21.0943682 22.44562756 21.09336853 24.26023865 C21.08954279 29.0459023 21.07971204 33.8315358 21.06866455 38.6171875 C21.05845163 43.49674064 21.05387117 48.37629864 21.04882812 53.25585938 C21.03808982 62.83725286 21.02101273 72.41862393 21 82 C18.35541621 83.32229189 16.32238699 83.09677194 13.375 83.0625 C12.37210938 83.05347656 11.36921875 83.04445313 10.3359375 83.03515625 C9.56507813 83.02355469 8.79421875 83.01195312 8 83 C8 82.67 8 82.34 8 82 C9.98 82 11.96 82 14 82 C14.495 81.01 14.495 81.01 15 80 C16.32 80 17.64 80 19 80 C19 53.93 19 27.86 19 1 C13.06 1 7.12 1 1 1 C0.67 1.66 0.34 2.32 0 3 C0 2.01 0 1.02 0 0 Z " fill="#123B65" transform="translate(186,213)"/>
<path d="M0 0 C0.69802734 0.00386719 1.39605469 0.00773438 2.11523438 0.01171875 C2.80939453 0.00785156 3.50355469 0.00398437 4.21875 0 C9.42445449 0.01007881 9.42445449 0.01007881 11.67773438 1.13671875 C11.67773438 1.79671875 11.67773438 2.45671875 11.67773438 3.13671875 C6.06773437 3.13671875 0.45773438 3.13671875 -5.32226562 3.13671875 C-5.32226562 21.94671875 -5.32226562 40.75671875 -5.32226562 60.13671875 C-5.65226563 60.13671875 -5.98226562 60.13671875 -6.32226562 60.13671875 C-6.34539383 52.46135248 -6.36318316 44.78598979 -6.3740778 37.11059666 C-6.37930558 33.54694453 -6.38640132 29.98331618 -6.39770508 26.41967773 C-6.41060738 22.32665778 -6.41549469 18.23366295 -6.41992188 14.140625 C-6.42508316 12.85523331 -6.43024445 11.56984161 -6.43556213 10.24549866 C-6.43563766 9.06434982 -6.4357132 7.88320099 -6.43579102 6.66625977 C-6.43801163 5.62035172 -6.44023224 4.57444366 -6.44252014 3.49684143 C-6.21656143 -0.93783845 -3.88808426 0.00754236 0 0 Z " fill="#0A4475" transform="translate(232.322265625,211.86328125)"/>
<path d="M0 0 C5.34586466 0.59398496 5.34586466 0.59398496 7.8125 2.125 C9.69777177 5.1017449 9.93971156 7.50327038 10 11 C8.33531594 13.83612839 7.07612989 15.46193505 4.125 16.9375 C0.12794432 17.05506046 -2.93365448 15.92875255 -5.9375 13.3125 C-7.46524818 9.98740103 -6.74095253 7.5026847 -6 4 C-5.34 4 -4.68 4 -4 4 C-4 6.31 -4 8.62 -4 11 C-3.34 11 -2.68 11 -2 11 C-1.67 11.66 -1.34 12.32 -1 13 C2.02934491 13.65772428 2.02934491 13.65772428 5 14 C5.77772405 11.66682784 6.42415568 9.38564077 7 7 C6.34 6.566875 5.68 6.13375 5 5.6875 C4.34 5.130625 3.68 4.57375 3 4 C3 3.01 3 2.02 3 1 C2.01 0.67 1.02 0.34 0 0 Z " fill="#D78367" transform="translate(175,175)"/>
<path d="M0 0 C1.76732001 4.41830002 0.5154198 5.6960307 -1 11 C6.26 11 13.52 11 21 11 C21 11.66 21 12.32 21 13 C12.75 13 4.5 13 -4 13 C-3.12288257 7.7372954 -2.1476409 4.66878456 0 0 Z " fill="#0F3C5F" transform="translate(375,282)"/>
<path d="M0 0 C0 0.66 0 1.32 0 2 C-2.64 2.33 -5.28 2.66 -8 3 C-8 3.66 -8 4.32 -8 5 C-8.66 5 -9.32 5 -10 5 C-9.34 7.31 -8.68 9.62 -8 12 C-7.071875 12.144375 -6.14375 12.28875 -5.1875 12.4375 C-2 13 -2 13 1 14 C0.67 14.66 0.34 15.32 0 16 C-6.2004008 16.35771543 -6.2004008 16.35771543 -9.375 14.9375 C-11.81081016 12.03326481 -11.93550991 9.74042509 -12 6 C-9.1434258 -0.25725777 -6.55504912 -0.1213898 0 0 Z " fill="#BB7466" transform="translate(388,309)"/>
<path d="M0 0 C1.65 0 3.3 0 5 0 C4.3503125 0.7425 4.3503125 0.7425 3.6875 1.5 C1.43618332 4.83528397 0.328939 8.20303142 -1 12 C-1.66 12 -2.32 12 -3 12 C-3.061875 12.598125 -3.12375 13.19625 -3.1875 13.8125 C-4.3236757 16.87143458 -6.17330142 17.55041099 -9 19 C-9 15 -9 15 -6.6875 12.5625 C-5.800625 11.716875 -4.91375 10.87125 -4 10 C-1.68752705 6.69646721 -0.5701685 3.99117947 0 0 Z " fill="#0C577C" transform="translate(184,259)"/>
<path d="M0 0 C-0.33 2.31 -0.66 4.62 -1 7 C-3.97 7 -6.94 7 -10 7 C-9.67 5.02 -9.34 3.04 -9 1 C-5.92677456 0.08941469 -3.19902639 -0.08886184 0 0 Z " fill="#FB7758" transform="translate(165,341)"/>
<path d="M0 0 C0.33 1.32 0.66 2.64 1 4 C-7.25 4 -15.5 4 -24 4 C-24 3.01 -24 2.02 -24 1 C-23.30849854 1.00523682 -22.61699707 1.01047363 -21.90454102 1.01586914 C-18.79053648 1.036575 -15.67654639 1.04963963 -12.5625 1.0625 C-11.47388672 1.07087891 -10.38527344 1.07925781 -9.26367188 1.08789062 C-7.71196289 1.09272461 -7.71196289 1.09272461 -6.12890625 1.09765625 C-5.17056885 1.10289307 -4.21223145 1.10812988 -3.22485352 1.11352539 C-1.02714661 1.2505313 -1.02714661 1.2505313 0 0 Z " fill="#0F3A61" transform="translate(486,291)"/>
<path d="M0 0 C1.134375 0.020625 2.26875 0.04125 3.4375 0.0625 C4.0625 1.9375 4.0625 1.9375 4.4375 4.0625 C2.4375 6.0625 2.4375 6.0625 -1.1875 6.1875 C-2.30125 6.14625 -3.415 6.105 -4.5625 6.0625 C-4.605221 4.39638095 -4.60313832 2.72867115 -4.5625 1.0625 C-3.5625 0.0625 -3.5625 0.0625 0 0 Z " fill="#FB7853" transform="translate(159.5625,311.9375)"/>
<path d="M0 0 C0.66 0.33 1.32 0.66 2 1 C2.4247346 5.3322929 2.47048413 7.34962488 -0.125 10.9375 C-3.43148796 13.30954571 -5.0239197 13.46233492 -9 13 C-9 12.01 -9 11.02 -9 10 C-6.69 10 -4.38 10 -2 10 C-1.34 6.7 -0.68 3.4 0 0 Z " fill="#D47D6A" transform="translate(166,338)"/>
<path d="M0 0 C5.34586466 0.59398496 5.34586466 0.59398496 7.8125 2.125 C9.6880626 5.08641464 9.93906499 7.5267043 10 11 C8.0625 13.4375 8.0625 13.4375 6 15 C5.67 13.68 5.34 12.36 5 11 C5.66 11 6.32 11 7 11 C7 9.68 7 8.36 7 7 C5.68662604 5.9739266 4.35335895 4.97272675 3 4 C3 3.01 3 2.02 3 1 C2.01 0.67 1.02 0.34 0 0 Z " fill="#CF7262" transform="translate(175,175)"/>
<path d="M0 0 C3 1 3 1 4 3 C4.46829268 10.37560976 4.46829268 10.37560976 2.5 13 C2.005 13.33 1.51 13.66 1 14 C0.67 13.34 0.34 12.68 0 12 C0.64438717 10.32459336 1.31246699 8.65816784 2 7 C2 6.01 2 5.02 2 4 C1.01 4 0.02 4 -1 4 C-1.33 4.66 -1.66 5.32 -2 6 C-2.99 5.67 -3.98 5.34 -5 5 C-4.67 4.01 -4.34 3.02 -4 2 C-2.68 2 -1.36 2 0 2 C0 1.34 0 0.68 0 0 Z " fill="#EA8060" transform="translate(388,310)"/>
<path d="M0 0 C1.051875 0.2475 2.10375 0.495 3.1875 0.75 C3.1875 1.41 3.1875 2.07 3.1875 2.75 C-0.43223402 4.06626692 -2.90817131 4.75 -6.8125 4.75 C-7.1425 5.41 -7.4725 6.07 -7.8125 6.75 C-8.1425 5.76 -8.4725 4.77 -8.8125 3.75 C-5.66311307 0.60061307 -4.55934222 -0.29897326 0 0 Z " fill="#D17866" transform="translate(160.8125,334.25)"/>
<path d="M0 0 C0.99 0 1.98 0 3 0 C1.00386732 6.7186905 -1.7291421 12.80734808 -5 19 C-5.33 19 -5.66 19 -6 19 C-6 17.02 -6 15.04 -6 13 C-5.01 13 -4.02 13 -3 13 C-3.061875 11.824375 -3.061875 11.824375 -3.125 10.625 C-3 8 -3 8 -1 6 C-0.60235737 4.01178687 -0.26224651 2.01055661 0 0 Z " fill="#0C3A64" transform="translate(402,274)"/>
<path d="M0 0 C7.2 -0.48 7.2 -0.48 10.5 1.5 C12.68405234 5.14008723 12.28023018 7.79654733 12 12 C11.01 12.33 10.02 12.66 9 13 C9.06510417 11.01432292 9.13020833 9.02864583 9.1953125 7.04296875 C9.13254462 4.68640281 9.13254462 4.68640281 7 2 C5.02252878 1.63702064 5.02252878 1.63702064 2.875 1.8125 C1.59625 1.874375 0.3175 1.93625 -1 2 C-0.67 1.34 -0.34 0.68 0 0 Z " fill="#A86657" transform="translate(156,309)"/>
<path d="M0 0 C2.45840605 -0.02691685 4.91651882 -0.04679802 7.375 -0.0625 C8.07367188 -0.07087891 8.77234375 -0.07925781 9.4921875 -0.08789062 C14.7734375 -0.11328125 14.7734375 -0.11328125 17 1 C17 1.66 17 2.32 17 3 C11.06 2.67 5.12 2.34 -1 2 C-0.67 1.34 -0.34 0.68 0 0 Z " fill="#0E8BA2" transform="translate(227,212)"/>
<path d="M0 0 C1.32 0.33 2.64 0.66 4 1 C4 1.66 4 2.32 4 3 C4.66 3 5.32 3 6 3 C6 3.66 6 4.32 6 5 C6.66 5 7.32 5 8 5 C8 5.66 8 6.32 8 7 C8.99 7.33 9.98 7.66 11 8 C10.01 8.495 10.01 8.495 9 9 C6.875 8.0625 6.875 8.0625 5 7 C5 6.34 5 5.68 5 5 C3.35 4.67 1.7 4.34 0 4 C0 4.66 0 5.32 0 6 C-0.66 6 -1.32 6 -2 6 C-1.34 4.02 -0.68 2.04 0 0 Z " fill="#0A597C" transform="translate(101,261)"/>
<path d="M0 0 C6.22222222 -0.47863248 6.22222222 -0.47863248 9.4375 1.5 C11.71029038 5.13646461 11.28281164 7.75782535 11 12 C10.67 12 10.34 12 10 12 C9.5359375 10.329375 9.5359375 10.329375 9.0625 8.625 C8.17673517 5.2054845 8.17673517 5.2054845 7 3 C4.67843403 2.59270772 2.3431213 2.25561323 0 2 C0 1.34 0 0.68 0 0 Z " fill="#C1785B" transform="translate(407,309)"/>
<path d="M0 0 C0.66 0 1.32 0 2 0 C1.37321829 3.66172475 0.35548154 6.8818995 -1.0625 10.3125 C-1.42472656 11.19550781 -1.78695313 12.07851562 -2.16015625 12.98828125 C-2.43730469 13.65214844 -2.71445312 14.31601563 -3 15 C-3.33 15 -3.66 15 -4 15 C-4.19622241 10.78121808 -3.80230168 7.82989106 -2 4 C-1.34 4 -0.68 4 0 4 C0 2.68 0 1.36 0 0 Z " fill="#0A385E" transform="translate(418,236)"/>
<path d="M0 0 C-3.03839305 2.02559537 -5.4691418 3.11728545 -9 4 C-9.99 3.34 -10.98 2.68 -12 2 C-8.63758153 -1.36241847 -4.39594827 -1.5216744 0 0 Z " fill="#105E82" transform="translate(60,189)"/>
<path d="M0 0 C0.66 0.33 1.32 0.66 2 1 C1.34 2.98 0.68 4.96 0 7 C0.66 7.33 1.32 7.66 2 8 C1.01 8 0.02 8 -1 8 C-4 4.66666667 -4 4.66666667 -4 2 C-2.125 0.9375 -2.125 0.9375 0 0 Z " fill="#EB8B75" transform="translate(155,341)"/>
<path d="M0 0 C5.37722282 2.50318993 9.59391956 5.03452761 14 9 C10.05008501 9 9.02018737 7.44491359 6 5 C5.0925 4.649375 4.185 4.29875 3.25 3.9375 C2.5075 3.628125 1.765 3.31875 1 3 C0.67 2.01 0.34 1.02 0 0 Z " fill="#10395E" transform="translate(96,172)"/>
<path d="M0 0 C0 0.99 0 1.98 0 3 C-2.64458379 4.32229189 -4.67761301 4.09677194 -7.625 4.0625 C-8.62789062 4.05347656 -9.63078125 4.04445313 -10.6640625 4.03515625 C-11.43492187 4.02355469 -12.20578125 4.01195312 -13 4 C-13 3.67 -13 3.34 -13 3 C-11.02 3 -9.04 3 -7 3 C-6.67 2.34 -6.34 1.68 -6 1 C-3.911361 0.32624548 -2.19636905 0 0 0 Z " fill="#0D5672" transform="translate(207,292)"/>
<path d="M0 0 C2.64 1.98 5.28 3.96 8 6 C6.68 6.33 5.36 6.66 4 7 C4 6.34 4 5.68 4 5 C2.35 4.67 0.7 4.34 -1 4 C-0.67 2.68 -0.34 1.36 0 0 Z " fill="#0F3E67" transform="translate(147,271)"/>
<path d="M0 0 C0.66 1.32 1.32 2.64 2 4 C-1.3282731 5.66413655 -4.99733973 4.81867406 -8.625 4.5625 C-9.42679688 4.51029297 -10.22859375 4.45808594 -11.0546875 4.40429688 C-13.03679103 4.27451629 -15.01844499 4.13790265 -17 4 C-17 3.67 -17 3.34 -17 3 C-11.39 3 -5.78 3 0 3 C0 2.01 0 1.02 0 0 Z " fill="#0B4F7C" transform="translate(244,332)"/>
<path d="M0 0 C-0.1875 1.8125 -0.1875 1.8125 -1 4 C-3.5625 5.75 -3.5625 5.75 -6 7 C-6 5.68 -6 4.36 -6 3 C-2.78571429 0 -2.78571429 0 0 0 Z " fill="#1A5077" transform="translate(181,271)"/>
<path d="M0 0 C0.66 0.33 1.32 0.66 2 1 C2.1875 4.3125 2.1875 4.3125 2 8 C1.01 8.99 0.02 9.98 -1 11 C-0.67 7.37 -0.34 3.74 0 0 Z " fill="#B76D5B" transform="translate(166,338)"/>
<path d="M0 0 C3.63 0.66 7.26 1.32 11 2 C10.67 2.66 10.34 3.32 10 4 C6.6875 4.25 6.6875 4.25 3 4 C2.01 2.68 1.02 1.36 0 0 Z " fill="#D3806F" transform="translate(153,321)"/>
<path d="M0 0 C0 0.99 0 1.98 0 3 C-2.97 3 -5.94 3 -9 3 C-9.33 2.34 -9.66 1.68 -10 1 C-3.375 0 -3.375 0 0 0 Z " fill="#0F4167" transform="translate(170,278)"/>
<path d="M0 0 C2 1.5625 2 1.5625 4 4 C4.25 7.75 4.25 7.75 4 11 C1.6870518 8.6870518 1.50419025 7.52095125 0.875 4.375 C0.70742187 3.55773437 0.53984375 2.74046875 0.3671875 1.8984375 C0.24601563 1.27195313 0.12484375 0.64546875 0 0 Z " fill="#0C3F60" transform="translate(4,248)"/>
<path d="M0 0 C1.32 0 2.64 0 4 0 C4.33 0.66 4.66 1.32 5 2 C7.01669827 3.13350534 7.01669827 3.13350534 9 4 C7.02 4.99 7.02 4.99 5 6 C3.35 4.02 1.7 2.04 0 0 Z " fill="#0F4668" transform="translate(95,198)"/>
<path d="M0 0 C3.5865054 1.33213058 6.87682483 2.76916059 10 5 C10 5.99 10 6.98 10 8 C8.33055479 6.85821872 6.6645052 5.71147095 5 4.5625 C4.071875 3.92441406 3.14375 3.28632813 2.1875 2.62890625 C1.465625 2.09136719 0.74375 1.55382812 0 1 C0 0.67 0 0.34 0 0 Z " fill="#0E5379" transform="translate(80,188)"/>
<path d="M0 0 C1.46015291 0.28241641 2.91809793 0.57626614 4.375 0.875 C5.18710937 1.03742188 5.99921875 1.19984375 6.8359375 1.3671875 C9 2 9 2 11 4 C9.54119891 3.85892253 8.08296449 3.71197585 6.625 3.5625 C5.40683594 3.44068359 5.40683594 3.44068359 4.1640625 3.31640625 C2 3 2 3 0 2 C0 1.34 0 0.68 0 0 Z " fill="#0C3C62" transform="translate(275,211)"/>
<path d="M0 0 C2.64 0 5.28 0 8 0 C8 0.99 8 1.98 8 3 C5.69 3 3.38 3 1 3 C0.67 2.01 0.34 1.02 0 0 Z " fill="#D17C6C" transform="translate(380,322)"/>
<path d="M0 0 C0.33 0.99 0.66 1.98 1 3 C-2.465 4.485 -2.465 4.485 -6 6 C-6 5.01 -6 4.02 -6 3 C-4.02 2.01 -2.04 1.02 0 0 Z " fill="#0F3B67" transform="translate(91,269)"/>
<path d="M0 0 C0.66 0.33 1.32 0.66 2 1 C0.875 3.4375 0.875 3.4375 -1 6 C-4.1875 6.8125 -4.1875 6.8125 -7 7 C-4.66666667 4.66666667 -2.33333333 2.33333333 0 0 Z " fill="#0F3B61" transform="translate(100,262)"/>
<path d="M0 0 C1.0625 1.8125 1.0625 1.8125 2 4 C1.67 4.99 1.34 5.98 1 7 C0.34 7 -0.32 7 -1 7 C-1.33 7.99 -1.66 8.98 -2 10 C-2.66 10 -3.32 10 -4 10 C-2.8905928 6.51329166 -1.73662334 3.22515763 0 0 Z " fill="#0B3B60" transform="translate(285,262)"/>
<path d="M0 0 C0.66 0 1.32 0 2 0 C2.33 0.99 2.66 1.98 3 3 C3.99 3.66 4.98 4.32 6 5 C5.67 6.32 5.34 7.64 5 9 C4.16094435 7.87926138 3.32892169 6.75325453 2.5 5.625 C2.0359375 4.99851562 1.571875 4.37203125 1.09375 3.7265625 C0 2 0 2 0 0 Z " fill="#0C3C64" transform="translate(10,263)"/>
<path d="M0 0 C0.33 0 0.66 0 1 0 C1 1.65 1 3.3 1 5 C-0.65 5.66 -2.3 6.32 -4 7 C-2.92598892 4.08482708 -2.22189824 2.22189824 0 0 Z " fill="#143F67" transform="translate(132,224)"/>
<path d="M0 0 C2 1 2 1 3.25 4.375 C3.4975 5.57125 3.745 6.7675 4 8 C3.01 9.485 3.01 9.485 2 11 C1.664061 9.5422647 1.33133376 8.08378894 1 6.625 C0.814375 5.81289063 0.62875 5.00078125 0.4375 4.1640625 C0 2 0 2 0 0 Z " fill="#074267" transform="translate(474,264)"/>
<path d="M0 0 C0.99 0.33 1.98 0.66 3 1 C3 1.99 3 2.98 3 4 C1.02 4.99 1.02 4.99 -1 6 C-1.33 5.01 -1.66 4.02 -2 3 C-1.34 2.01 -0.68 1.02 0 0 Z " fill="#0A436D" transform="translate(9,201)"/>
<path d="M0 0 C1.98 0 3.96 0 6 0 C6.33 1.32 6.66 2.64 7 4 C6.01 4.495 6.01 4.495 5 5 C4.67 4.34 4.34 3.68 4 3 C1.97536745 2.34786708 1.97536745 2.34786708 0 2 C0 1.34 0 0.68 0 0 Z " fill="#166381" transform="translate(341,169)"/>
<path d="M0 0 C0.99 0.33 1.98 0.66 3 1 C4.1875 3.5625 4.1875 3.5625 5 6 C2.525 5.01 2.525 5.01 0 4 C0 2.68 0 1.36 0 0 Z " fill="#083E61" transform="translate(251,289)"/>
<path d="M0 0 C1.32 0.33 2.64 0.66 4 1 C4 1.66 4 2.32 4 3 C2.02 3.33 0.04 3.66 -2 4 C-1.34 2.68 -0.68 1.36 0 0 Z " fill="#074072" transform="translate(50,272)"/>
<path d="M0 0 C1.5 1.1875 1.5 1.1875 3 3 C3.1875 5.6875 3.1875 5.6875 3 8 C2.01 7.34 1.02 6.68 0 6 C-0.1875 2.875 -0.1875 2.875 0 0 Z " fill="#0A456C" transform="translate(301,230)"/>
<path d="M0 0 C0.66 0 1.32 0 2 0 C2 1.98 2 3.96 2 6 C1.01 6.33 0.02 6.66 -1 7 C-0.67 4.69 -0.34 2.38 0 0 Z " fill="#DC8B7D" transform="translate(169,179)"/>
</svg>
